<svg width="181" height="194" viewBox="0 0 181 194" fill="none" xmlns="http://www.w3.org/2000/svg">
<g clip-path="url(#clip0_8_10)">
<path d="M168.12 124.07C168.12 124.07 191.63 67.44 114.05 48.07" stroke="#93278F" stroke-width="5" stroke-miterlimit="10"/>
<path d="M164.476 142.918L155.407 140.58L164.907 103.72L173.976 106.058C175.687 106.498 177.153 107.601 178.051 109.122C178.948 110.644 179.205 112.46 178.764 114.171L172.602 138.081C172.161 139.792 171.058 141.257 169.537 142.155C168.015 143.053 166.2 143.31 164.489 142.869L164.476 142.918Z" fill="#553192"/>
<path d="M36.3 89.74C36.3 89.74 43.4001 28.84 120.57 49.74" stroke="#93278F" stroke-width="5" stroke-miterlimit="10"/>
<path d="M40.2307 70.9896L49.2788 73.3465L39.7001 110.119L30.652 107.763C29.807 107.542 29.0135 107.158 28.317 106.631C27.6204 106.104 27.0345 105.446 26.5926 104.692C26.1507 103.939 25.8614 103.106 25.7414 102.241C25.6214 101.376 25.6729 100.496 25.893 99.6511L32.1191 75.7487C32.3393 74.9036 32.7237 74.1101 33.2505 73.4136C33.7773 72.7171 34.4361 72.1311 35.1893 71.6892C35.9425 71.2473 36.7754 70.9581 37.6404 70.838C38.5054 70.718 39.3856 70.7695 40.2307 70.9896Z" fill="#553192"/>
<path d="M26.8701 95.94L46.4201 101.03" stroke="#D5FF9F" stroke-width="2" stroke-miterlimit="10"/>
<path d="M26.1101 98.84L45.6601 103.93" stroke="#D5FF9F" stroke-width="2" stroke-miterlimit="10"/>
<path d="M174.16 134.3L154.61 129.21" stroke="#D5FF9F" stroke-width="2" stroke-miterlimit="10"/>
<path d="M173.4 137.2L153.85 132.11" stroke="#D5FF9F" stroke-width="2" stroke-miterlimit="10"/>
<path d="M41.22 82.64L41.7 82.26L38.9799 83.09L38.95 83.2L41.22 82.64Z" fill="#5B6E3C"/>
<path d="M35.4001 83.5C35.5732 83.2264 35.8239 83.0106 36.1201 82.88C36.3366 82.8066 36.562 82.7629 36.7901 82.75C37.0438 82.7008 37.3018 82.6774 37.5601 82.68C37.9345 82.7075 38.299 82.8131 38.6301 82.99" stroke="#0C2B17" stroke-width="5" stroke-miterlimit="10"/>
<path d="M38.67 83.19L41.7001 82.26L41.1101 78.93L37.8 79.9L38.67 83.19Z" fill="#027739"/>
<path d="M35.28 80.3C35.8111 79.9135 36.4671 79.7388 37.12 79.81L37.54 82.63C37.54 82.63 35.67 82.89 35.54 83.11C35.3972 82.1794 35.3104 81.241 35.28 80.3V80.3Z" fill="#085D2D"/>
<path d="M38.2602 75.82C38.3931 76.9392 38.6003 78.0483 38.8802 79.14C38.8855 79.1765 38.8855 79.2135 38.8802 79.25C38.8766 79.3021 38.8555 79.3515 38.8202 79.39C38.7602 79.48 38.2802 80.55 37.4102 82.6L37.8802 82.67L39.6302 79.29L38.8802 75.82H38.2602Z" fill="#027739"/>
<path d="M39.77 79.31H39.01L37.54 82.67L37 79.22L38.35 75.85L39 79.3" fill="#027739"/>
<path d="M38 82.68C38 82.68 38.86 82.88 38.76 83.1C38.66 83.32 38.37 81.84 38.37 81.84L37.98 82.19L38 82.68Z" fill="#027343"/>
<path d="M35.2601 79.72L35.5901 83.09L32.0501 81.19L31.8101 78.18L35.2601 79.72Z" fill="#027739"/>
<path d="M35.4202 83.19L35.6602 82.99L32.0202 81.19L31.6802 81.56L35.4202 83.19Z" fill="#027739"/>
<path d="M31.4102 78.5L31.8102 78.18L32.0502 81.19L31.6902 81.55L31.4102 78.5Z" fill="#027739"/>
<path d="M33.8801 83.12L33.8201 82.21L35.2101 83.02L35.2501 83.61L33.8801 83.12Z" fill="#72B33F"/>
<path d="M38.6643 95.0022C41.6131 94.5951 43.6326 91.5774 43.1749 88.262C42.7172 84.9466 39.9557 82.589 37.0068 82.9961C34.058 83.4031 32.0385 86.4208 32.4962 89.7362C32.9539 93.0516 35.7154 95.4093 38.6643 95.0022Z" fill="#C3D2D7"/>
<path d="M39.6908 85.5542L39.5331 85.4478C38.6804 84.8726 37.5242 85.0955 36.9505 85.9459C36.3767 86.7962 36.6028 87.9519 37.4555 88.5271L37.6132 88.6335C38.4658 89.2088 39.622 88.9858 40.1958 88.1355C40.7695 87.2851 40.5434 86.1295 39.6908 85.5542Z" fill="#D05C00"/>
<path d="M36.6975 88.7158L35.9129 88.1802C35.2241 87.71 34.2846 87.8872 33.8144 88.576L33.8088 88.5842C33.3386 89.273 33.5158 90.2125 34.2045 90.6827L34.9891 91.2183C35.6779 91.6885 36.6174 91.5113 37.0876 90.8226L37.0932 90.8143C37.5634 90.1256 37.3862 89.186 36.6975 88.7158Z" fill="#D05C00"/>
<path d="M39.7537 90.8488L40.0603 91.1057C40.1945 91.2182 40.2785 91.3793 40.2939 91.5536C40.3092 91.728 40.2547 91.9013 40.1423 92.0355C39.8238 92.4157 39.3673 92.6537 38.8732 92.6973C38.3792 92.7408 37.8881 92.5864 37.5079 92.2678C37.3738 92.1554 37.2898 91.9943 37.2744 91.8199C37.259 91.6456 37.3135 91.4722 37.4259 91.3381L37.6828 91.0315C37.9332 90.7326 38.2921 90.5455 38.6804 90.5113C39.0688 90.477 39.4549 90.5984 39.7537 90.8488V90.8488Z" fill="#F48300"/>
<path d="M42.79 89.61C42.8288 89.545 42.8492 89.4707 42.8492 89.395C42.8492 89.3193 42.8288 89.245 42.79 89.18C42.4831 88.5004 42.0485 87.8859 41.51 87.37L41.37 87.23C41.3252 87.1898 41.2722 87.1597 41.2147 87.1418C41.1572 87.1238 41.0965 87.1185 41.0368 87.1261C40.977 87.1337 40.9196 87.154 40.8684 87.1858C40.8172 87.2175 40.7734 87.2599 40.74 87.31C40.56 87.57 40.36 87.84 40.13 88.12C39.9 88.4 39.59 88.74 39.34 89.01C39.2625 89.0886 39.219 89.1946 39.219 89.305C39.219 89.4154 39.2625 89.5214 39.34 89.6L40.83 91C40.9054 91.0682 41.0034 91.1059 41.105 91.1059C41.2067 91.1059 41.3047 91.0682 41.38 91C41.6576 90.787 41.9184 90.553 42.16 90.3C42.384 90.0832 42.5944 89.8527 42.79 89.61Z" fill="#D05C00"/>
<path d="M41.4301 86.72C41.4301 86.72 41.0101 86.54 41.4301 85.59C41.4301 85.59 41.4301 84.95 41.4301 84.9C42.3622 85.9345 42.9767 87.2156 43.2001 88.59C43.2001 88.59 43.0001 89.59 42.5801 88.59C42.3112 87.9031 41.9218 87.2699 41.4301 86.72V86.72Z" fill="#D05C00"/>
<path d="M38.13 84C38.3009 83.8061 38.5222 83.6632 38.7693 83.5873C39.0164 83.5114 39.2797 83.5054 39.53 83.57C40.27 83.85 41.33 84.57 41.19 84.94C41.05 85.31 41.06 86.18 40.26 85.67C39.46 85.16 37.81 84.19 38.13 84Z" fill="#D05C00"/>
<path d="M37.0502 83.87C37.0502 83.87 37.5302 84.29 38.2902 83.64C38.2902 83.64 39.1502 83.32 38.3902 83.22C37.6302 83.12 37.7602 82.95 37.3902 83.05C37.0202 83.15 36.2802 83.4 36.2602 83.39C36.2402 83.38 36.0902 83.39 36.0802 83.51C36.0702 83.63 36.0802 83.6 36.2902 83.65L37.0502 83.87Z" fill="#D05C00"/>
<path d="M35.41 83.52C35.41 83.52 35.96 83.58 35.51 83.78C35.06 83.98 33.7 85.39 33.78 85.08C34.2268 84.4677 34.7787 83.9396 35.41 83.52V83.52Z" fill="#D05C00"/>
<path d="M33.85 85.22C33.85 85.22 35.55 83.43 36.21 83.8C36.87 84.17 37.5 84.16 36.98 84.5C36.46 84.84 34.63 86.38 34.63 86.38L34.47 86.45L33.74 85.66C33.74 85.66 33.71 85.34 33.85 85.22Z" fill="#D05C00"/>
<path d="M33.1801 86.19C33.1801 86.19 33.5001 85.56 33.6501 86.19C33.7601 86.59 34.2001 86.58 34.3201 86.82C34.4401 87.06 34.3201 87.14 34.1901 87.44C34.0162 87.7926 33.8085 88.1275 33.5701 88.44C33.1901 89.08 33.1901 89.58 32.9601 89.59C32.9106 89.5876 32.8625 89.5725 32.8205 89.5463C32.7785 89.52 32.7439 89.4834 32.7201 89.44C32.5789 89.2498 32.48 89.0316 32.4301 88.8C32.3849 88.3343 32.4642 87.8649 32.6601 87.44C32.7983 87.0096 32.9722 86.5914 33.1801 86.19Z" fill="#D05C00"/>
<path d="M41.51 91.5C41.4293 91.5937 41.3711 91.7046 41.3399 91.8241C41.3088 91.9437 41.3053 92.0689 41.33 92.19C41.44 92.55 41.21 93.34 41.7 92.91C42.0567 92.6466 42.3704 92.3295 42.63 91.97C42.72 91.74 43.14 89.79 42.55 90.45C42.2237 90.8197 41.8765 91.1702 41.51 91.5V91.5Z" fill="#F48300"/>
<path d="M35.32 91.91C35.32 91.91 36.16 92.11 35.9 92.73C35.64 93.35 35.8 93.73 35.63 93.82C35.46 93.91 35.46 93.82 35.07 93.63C34.7632 93.496 34.4687 93.3354 34.19 93.15C33.7968 92.8091 33.5117 92.3607 33.37 91.86C32.72 90.11 33.69 90.92 33.69 90.92L35.32 91.91Z" fill="#F48300"/>
<path d="M36.2002 93.2C36.2286 93.081 36.2857 92.9707 36.3665 92.8789C36.4472 92.787 36.5493 92.7163 36.6637 92.6729C36.7781 92.6295 36.9013 92.6148 37.0227 92.6299C37.1441 92.6451 37.26 92.6898 37.3602 92.76C38.2702 93.22 39.0102 93.69 39.3602 93.17C39.7102 92.65 40.7802 91.92 40.9002 92.43C41.0202 92.94 40.8002 93.79 41.4602 93.21L42.1102 92.8C42.1102 92.8 39.1802 97.42 34.4202 93.55C34.8849 93.6998 35.3392 93.8802 35.7802 94.09C35.9602 94.23 36.1102 93.88 36.0702 93.7C36.069 93.5248 36.1138 93.3524 36.2002 93.2V93.2Z" fill="#FAB901"/>
<path d="M36.8302 94.77H37.6602C37.6602 94.77 37.8702 94.34 38.1402 94.43C38.4251 94.5291 38.7352 94.5291 39.0202 94.43C39.2202 94.31 39.8702 93.94 39.6602 94.36C39.4502 94.78 40.1002 94.43 40.1002 94.43L40.1702 94.49C39.3339 94.8605 38.4241 95.035 37.5102 95C36.5402 94.83 36.8302 94.77 36.8302 94.77Z" fill="#4E8D3B"/>
<path d="M32.8501 91.15C32.8501 91.15 37.9401 87.93 43.2201 89.72" stroke="#3E3536" stroke-miterlimit="10"/>
<path d="M35.1 84.55C35.1503 84.4934 35.2149 84.4514 35.2871 84.4286C35.3593 84.4057 35.4363 84.4027 35.51 84.42L36.87 84.76C37.65 84.96 37.87 85.01 37.92 85.18C37.97 85.35 37.64 85.68 36.81 86.7C36.21 87.45 36.1 87.7 35.81 87.7C35.52 87.7 35.52 87.7 34.7 87.2C33.88 86.7 33.61 86.66 33.57 86.47C33.53 86.28 33.8 86.01 34.45 85.3C34.7 85 34.93 84.77 35.1 84.55Z" fill="#68647D"/>
<path d="M168.12 115.69L167.88 115.12L169.85 117.17L169.82 117.28L168.12 115.69Z" fill="#5B6E3C"/>
<path d="M172.78 119.27C172.761 118.947 172.646 118.637 172.45 118.38C172.294 118.214 172.119 118.066 171.93 117.94C171.733 117.774 171.518 117.63 171.29 117.51C170.952 117.339 170.579 117.25 170.2 117.25" stroke="#0C2B17" stroke-width="5" stroke-miterlimit="10"/>
<path d="M170.08 117.41L167.88 115.12L170.02 112.5L172.43 114.97L170.08 117.41Z" fill="#027739"/>
<path d="M174.44 116.54C174.44 116.54 173.93 115.44 173.08 115.22L171.33 117.48C171.33 117.48 172.84 118.61 172.81 118.85C173.397 118.112 173.941 117.341 174.44 116.54Z" fill="#085D2D"/>
<path d="M174 111.18C173.336 112.092 172.614 112.96 171.84 113.78C171.805 113.792 171.774 113.812 171.75 113.84C171.732 113.888 171.732 113.942 171.75 113.99C171.75 114.1 171.65 115.27 171.41 117.49L170.97 117.32L171.09 113.51L173.44 110.85L174 111.18Z" fill="#027739"/>
<path d="M171 113.49L171.68 113.82L171.32 117.47L173.46 114.77L173.93 111.16L171.67 113.85" fill="#027739"/>
<path d="M170.9 117.28C170.9 117.28 170.05 117.04 170.02 117.28C169.99 117.52 171.02 116.37 171.02 116.37L171.2 116.87L170.9 117.28Z" fill="#027343"/>
<path d="M174.74 116.04L172.81 118.83L176.83 118.9L178.5 116.39L174.74 116.04Z" fill="#027739"/>
<path d="M172.91 119L172.8 118.7L176.85 118.9L176.97 119.39L172.91 119Z" fill="#027739"/>
<path d="M178.7 116.86L178.5 116.39L176.83 118.9L176.96 119.38L178.7 116.86Z" fill="#027739"/>
<path d="M174.29 119.69L174.78 118.92L173.17 118.95L172.86 119.44L174.29 119.69Z" fill="#72B33F"/>
<path d="M172.259 126.13C174.276 123.458 173.985 119.839 171.609 118.046C169.233 116.252 165.672 116.963 163.656 119.635C161.639 122.306 161.931 125.925 164.306 127.719C166.682 129.512 170.243 128.801 172.259 126.13Z" fill="#C3D2D7"/>
<path d="M168.874 122.739L169.063 122.722C170.087 122.63 170.842 121.729 170.75 120.708C170.659 119.688 169.755 118.935 168.732 119.027L168.543 119.044C167.519 119.136 166.764 120.037 166.856 121.058C166.947 122.078 167.851 122.831 168.874 122.739Z" fill="#D05C00"/>
<path d="M169.361 126.201L170.307 126.116C171.138 126.041 171.751 125.308 171.676 124.477L171.675 124.467C171.601 123.636 170.867 123.024 170.036 123.098L169.09 123.183C168.26 123.258 167.647 123.991 167.721 124.822L167.722 124.832C167.797 125.663 168.531 126.276 169.361 126.201Z" fill="#D05C00"/>
<path d="M166.699 125.873C166.211 125.965 165.707 125.861 165.297 125.582C164.887 125.303 164.605 124.872 164.512 124.385V124.385C164.48 124.213 164.517 124.035 164.615 123.89C164.714 123.746 164.865 123.646 165.037 123.613L165.43 123.539C165.813 123.466 166.21 123.548 166.532 123.767C166.854 123.987 167.076 124.325 167.149 124.708L167.224 125.101C167.256 125.273 167.219 125.451 167.121 125.596C167.022 125.741 166.87 125.84 166.699 125.873Z" fill="#F48300"/>
<path d="M163.34 121C163.333 120.925 163.346 120.849 163.378 120.781C163.41 120.712 163.459 120.654 163.52 120.61C164.117 120.153 164.796 119.813 165.52 119.61L165.71 119.56C165.769 119.547 165.83 119.547 165.889 119.559C165.948 119.572 166.004 119.597 166.052 119.633C166.101 119.669 166.141 119.715 166.17 119.768C166.199 119.821 166.216 119.88 166.22 119.94C166.22 120.25 166.3 120.59 166.36 120.94C166.425 121.331 166.512 121.719 166.62 122.1C166.648 122.209 166.632 122.324 166.576 122.421C166.52 122.518 166.428 122.59 166.32 122.62L164.37 123.16C164.27 123.188 164.164 123.179 164.07 123.135C163.977 123.091 163.902 123.015 163.86 122.92C163.724 122.596 163.614 122.261 163.53 121.92C163.45 121.617 163.387 121.31 163.34 121V121Z" fill="#D05C00"/>
<path d="M165.94 119.15C165.94 119.15 166.39 119.15 166.52 118.15C166.52 118.15 166.79 117.58 166.82 117.54C165.499 117.982 164.335 118.799 163.47 119.89C163.47 119.89 163.14 120.89 164.04 120.16C164.607 119.712 165.251 119.369 165.94 119.15V119.15Z" fill="#D05C00"/>
<path d="M170.12 118.41C170.12 118.41 169.91 117.47 169.12 117.35C168.33 117.23 167.06 117.35 167 117.74C166.94 118.13 166.5 118.89 167.46 118.83C168.42 118.77 170.34 118.7 170.12 118.41Z" fill="#D05C00"/>
<path d="M171.15 118.79C171.15 118.79 170.53 118.92 170.15 117.99C170.15 117.99 169.55 117.28 170.26 117.57C170.97 117.86 170.95 117.64 171.2 117.9C171.45 118.16 172 118.75 172.02 118.75C172.04 118.75 172.14 118.87 172.12 118.94C172.1 119.01 172.04 119 171.87 118.94L171.15 118.79Z" fill="#D05C00"/>
<path d="M172.76 119.29C172.76 119.29 172.25 119.08 172.55 119.46C172.85 119.84 173.34 121.75 173.42 121.46C173.333 120.703 173.109 119.968 172.76 119.29V119.29Z" fill="#D05C00"/>
<path d="M173.29 121.53C173.29 121.53 172.68 119.14 171.92 119.15C171.16 119.16 170.62 118.82 170.92 119.38C171.22 119.94 172.05 122.17 172.05 122.17L172.16 122.3L173.16 121.97C173.16 121.97 173.35 121.71 173.29 121.53Z" fill="#D05C00"/>
<path d="M173.4 122.71C173.4 122.71 173.4 122 173 122.45C172.72 122.75 172.34 122.52 172.11 122.68C171.88 122.84 171.96 122.96 171.93 123.28C171.912 123.661 171.936 124.044 172 124.42C172 125.16 171.77 125.6 172 125.72C172.23 125.84 172.19 125.72 172.28 125.72C172.494 125.621 172.685 125.478 172.84 125.3C173.116 124.92 173.279 124.469 173.31 124C173.375 123.573 173.405 123.142 173.4 122.71Z" fill="#D05C00"/>
<path d="M163.54 123.28C163.565 123.401 163.561 123.526 163.53 123.646C163.499 123.765 163.441 123.876 163.36 123.97C163.09 124.23 162.9 125.03 162.69 124.42C162.505 124.015 162.386 123.583 162.34 123.14C162.34 122.9 162.95 120.99 163.14 121.85C163.242 122.335 163.376 122.813 163.54 123.28Z" fill="#F48300"/>
<path d="M168.74 126.66C168.74 126.66 167.92 126.43 167.84 127.08C167.76 127.73 167.43 128.02 167.54 128.17C167.65 128.32 167.68 128.27 168.12 128.28C168.453 128.3 168.787 128.3 169.12 128.28C169.628 128.171 170.096 127.921 170.47 127.56C171.9 126.34 170.65 126.56 170.65 126.56L168.74 126.66Z" fill="#F48300"/>
<path d="M167.35 127.36C167.394 127.239 167.406 127.109 167.385 126.982C167.364 126.855 167.311 126.736 167.231 126.635C167.15 126.535 167.046 126.457 166.926 126.409C166.807 126.36 166.678 126.344 166.55 126.36C165.55 126.36 164.65 126.36 164.55 125.72C164.45 125.08 163.92 123.94 163.55 124.33C163.18 124.72 162.97 125.56 162.68 124.73L162.31 124.06C162.31 124.06 162.62 129.52 168.66 128.47C168.182 128.368 167.698 128.301 167.21 128.27C166.99 128.27 167.02 127.93 167.15 127.79C167.25 127.665 167.319 127.517 167.35 127.36V127.36Z" fill="#FAB901"/>
<path d="M166 128.41L165.27 128.02C165.27 128.02 165.27 127.55 165.02 127.5C164.718 127.455 164.44 127.311 164.23 127.09C164.11 126.89 163.72 126.25 163.71 126.72C163.7 127.19 163.29 126.57 163.29 126.57H163.2C163.746 127.305 164.454 127.904 165.27 128.32C166.25 128.61 166 128.41 166 128.41Z" fill="#4E8D3B"/>
<path d="M171.27 127.2C171.27 127.2 168.4 121.9 162.91 120.89" stroke="#3E3536" stroke-miterlimit="10"/>
<path d="M172.52 120.34C172.506 120.266 172.471 120.198 172.42 120.143C172.368 120.089 172.303 120.049 172.23 120.03L170.88 119.66C170.1 119.45 169.88 119.39 169.75 119.51C169.62 119.63 169.75 120.08 169.98 121.38C170.15 122.38 170.11 122.61 170.38 122.81C170.65 123.01 170.66 122.9 171.59 122.91C172.52 122.92 172.81 122.97 172.93 122.82C173.05 122.67 172.93 122.31 172.74 121.37C172.64 121 172.57 120.61 172.52 120.34Z" fill="#68647D"/>
<path d="M156.39 60.89C144.57 45.15 126.64 39.05 121.15 37.31V37.25L120.54 37.13L119.94 36.94V37C114.3 35.84 95.6701 32.42 77.6801 40.4C51.0901 52.17 45.1601 80.73 41.2701 99.16C38.4901 112.33 31.9501 143.34 51.2701 170.03C55.4901 175.86 64.2701 187.94 79.8801 191.9L80.1801 191.97L80.4901 192.06C96.0601 196.22 109.6 189.95 116.13 186.92C146.06 173.06 155.47 142.81 159.47 129.92C165.12 112 173.86 84.14 156.39 60.89Z" fill="#DFC6A8"/>
<path d="M122.74 108.2C122.273 108.265 121.797 108.225 121.348 108.083C120.898 107.941 120.485 107.701 120.14 107.38C118.69 106 117.97 104.38 118.31 103.07C118.73 101.4 120.63 100.62 121.69 100.2C125.98 98.49 130.88 99.39 135.98 101.32C143.2 104.06 153.58 107.98 154.77 116.18C155.067 118.775 154.576 121.399 153.36 123.71C152.641 120.885 151.332 118.244 149.52 115.96C141.71 106.3 127.2 107.54 122.74 108.2Z" fill="#6A4630"/>
<path d="M84.78 98.31C85.1544 98.5977 85.5892 98.7968 86.0517 98.892C86.5142 98.9873 86.9923 98.9763 87.45 98.86C89.39 98.37 90.79 97.33 91.15 95.99C91.6 94.34 90.32 92.72 89.6 91.84C86.69 88.26 81.97 86.66 76.6 85.84C68.93 84.72 58 83.08 52.92 89.66C51.396 91.7801 50.5458 94.3099 50.48 96.92C52.4838 94.7918 54.9177 93.1146 57.62 92C69.14 87.4 81.2 95.56 84.78 98.31Z" fill="#6A4630"/>
<path d="M68.2702 122.14C74.8092 122.14 80.1102 116.839 80.1102 110.3C80.1102 103.761 74.8092 98.46 68.2702 98.46C61.7311 98.46 56.4302 103.761 56.4302 110.3C56.4302 116.839 61.7311 122.14 68.2702 122.14Z" fill="black"/>
<path d="M130.22 138.27C136.759 138.27 142.06 132.969 142.06 126.43C142.06 119.891 136.759 114.59 130.22 114.59C123.681 114.59 118.38 119.891 118.38 126.43C118.38 132.969 123.681 138.27 130.22 138.27Z" fill="black"/>
<path d="M27.16 26.21C45.08 15.36 81.42 -4.99999 93 1.11001L145.2 12.94C148.453 22.7957 151.21 32.8083 153.46 42.94C155.93 54.45 154.1 61.77 151.46 76.21C151.19 77.71 150.83 79.5 149.36 80.63C145.9 83.27 140.99 78.63 130.63 77.5C126.08 76.99 122.07 77.5 117.74 77.7C108.09 78.14 105.74 78.98 98.74 77.44C88.97 75.3 88.15 72.54 76.9 69.44C68.6319 67.1473 60.0664 66.109 51.49 66.36L25.15 41.08C24.1664 40.0321 23.4288 38.7781 22.9908 37.4093C22.5528 36.0404 22.4254 34.5912 22.6179 33.1669C22.8104 31.7427 23.318 30.3792 24.1037 29.1758C24.8894 27.9724 25.9335 26.9592 27.16 26.21V26.21Z" fill="#453327"/>
<path d="M136.61 78.92C137.54 73.65 140.61 52.57 128.06 33.02C115.89 14.02 93.6699 3.78003 70.1899 5.79003C81.3278 11.329 91.2297 19.0642 99.2999 28.53C110.962 42.4368 118.343 59.4255 120.55 77.44L136.61 78.92Z" fill="#A89586"/>
<path d="M91.9999 0.850026C91.2399 3.85003 131.26 6.99002 142.64 31.18C149.64 45.95 143.82 64.23 136.64 78.92L166 88.51C166 88.51 200.6 59.86 163.05 19.23C160.881 16.8645 158.195 15.0333 155.2 13.88C144.712 9.89186 133.951 6.66352 123 4.22003C107.78 0.820025 92.4599 -0.999974 91.9999 0.850026Z" fill="#A89586"/>
<path d="M100.47 76.15C104.17 71.79 94.85 55.06 83.34 45.32C72.46 36.12 60 33.44 51.27 32.74C50.9044 32.7 50.5356 32.7 50.17 32.74C48.8038 32.928 47.4486 33.1884 46.11 33.52C44.24 34 42.18 35.02 41.84 36.24C41.06 38.96 49.78 41.6 58.36 49.38C59.55 50.46 74.74 70.38 73.36 68.5L93.54 76.75C93.8217 76.8622 94.1129 76.9492 94.41 77.01C96.64 77.5 99.22 77.63 100.47 76.15Z" fill="#A89586"/>
<path d="M117.69 77.63C117.36 76.04 111.23 47.63 94.57 37.85C91.2853 35.9998 87.8208 34.4887 84.23 33.34C77.8579 31.406 71.1658 30.7535 64.54 31.42C65.73 31.48 94.19 33.42 104.8 55.82C108.02 62.8387 109.165 70.6318 108.1 78.28L117.69 77.63Z" fill="#A89586"/>
<path d="M129.26 76.57C129.26 76.57 140.26 43.64 114.14 27.63" stroke="#453327" stroke-linecap="round" stroke-linejoin="round"/>
<path d="M81.81 71.53C81.81 71.53 65.4 37.78 49.75 34.25" stroke="#453327" stroke-linecap="round" stroke-linejoin="round"/>
<path d="M154.68 18.36C179.68 31.93 154.84 84.86 154.84 84.86C154.84 84.86 166.84 27.42 146.54 16.24" stroke="#453327" stroke-linecap="round" stroke-linejoin="round"/>
<path d="M94.96 143.87C99.6213 143.87 103.4 140.091 103.4 135.43C103.4 130.769 99.6213 126.99 94.96 126.99C90.2987 126.99 86.52 130.769 86.52 135.43C86.52 140.091 90.2987 143.87 94.96 143.87Z" fill="#C69C6D"/>
<path d="M32.4901 130.44C35.3051 129.292 38.4497 129.248 41.2954 130.318C44.1411 131.388 46.4784 133.492 47.8401 136.21C48.4077 137.332 48.7475 138.556 48.8401 139.81C49.0101 142.64 47.7101 142.92 47.5901 145.71C47.5901 146.89 48.1301 149.06 49.3101 153.39L49.7801 155.07C50.3517 156.815 50.7601 158.609 51.0001 160.43C51.3601 163.13 51.6701 165.35 50.8301 168C50.3333 169.736 49.4109 171.32 48.1465 172.609C46.8822 173.898 45.316 174.85 43.5901 175.38C37.3101 177.47 31.0201 179.52 24.7501 181.61C23.9501 181.88 23.1001 181.8 22.3201 182.13H20.8001C19.6239 181.888 18.4621 181.581 17.3201 181.21C15.5002 180.468 13.9217 179.235 12.7601 177.65C12.2282 176.892 11.8104 176.06 11.5201 175.18C9.16006 168.4 3.34006 155.91 0.680055 140.18C0.564629 139.184 0.504537 138.183 0.500055 137.18C0.492278 134.594 1.30248 132.072 2.81479 129.974C4.3271 127.876 6.46406 126.31 8.92006 125.5C11.1952 124.663 13.6498 124.435 16.0401 124.84C17.7779 125.077 19.423 125.767 20.8101 126.84C22.5253 128.295 23.9942 130.017 25.1601 131.94C25.2257 132.159 25.3723 132.345 25.5701 132.46C25.692 132.511 25.8229 132.537 25.9551 132.537C26.0872 132.537 26.2181 132.511 26.3401 132.46C27.0001 132.15 29.2901 131.43 32.4901 130.44Z" fill="#DFC6A8" stroke="#FFE3C3" stroke-miterlimit="10"/>
<path d="M37.9101 143.68C37.9415 145.039 37.4877 146.365 36.6301 147.42C36.4523 147.608 36.3359 147.845 36.2966 148.101C36.2573 148.356 36.2969 148.618 36.4101 148.85C38.0801 153.85 39.7201 158.85 41.4101 163.79C41.5467 164.037 41.6063 164.32 41.5813 164.601C41.5564 164.883 41.448 165.15 41.2701 165.37C40.6501 166.01 39.6301 165.66 39.2701 164.69C38.2701 161.88 37.4001 159.06 36.4701 156.25C35.5401 153.44 34.6801 150.78 33.7501 148.07C33.6329 147.843 33.607 147.58 33.6776 147.334C33.7483 147.089 33.9102 146.88 34.1301 146.75C34.7845 146.255 35.2643 145.565 35.4998 144.779C35.7354 143.993 35.7145 143.153 35.4401 142.38C35.2469 141.645 34.817 140.994 34.217 140.528C33.6169 140.062 32.8801 139.806 32.1201 139.8C31.1201 139.68 30.6701 139.32 30.7301 138.55C30.7901 137.78 31.3601 137.44 32.4301 137.55C33.9672 137.643 35.4055 138.339 36.4318 139.487C37.4581 140.635 37.9894 142.142 37.9101 143.68Z" fill="#582D24" stroke="#582D24" stroke-width="0.26" stroke-miterlimit="10"/>
</g>
<defs>
<clipPath id="clip0_8_10">
<rect width="180.58" height="193.44" fill="white"/>
</clipPath>
</defs>
</svg>
