<svg width="980" height="980" viewBox="0 0 980 980" fill="none" xmlns="http://www.w3.org/2000/svg">
<ellipse cx="490" cy="490" rx="413" ry="435" fill="white"/>
<path d="M490 0C219.3 0 0 219.3 0 490C0 760.7 219.3 980 490 980C760.7 980 980 760.7 980 490C980 219.3 760.7 0 490 0ZM776.4 740.9C775.5 742 770.7 747.9 769 749.6C699.5 824.5 600.2 871.1 490 871.1C279.4 871.1 108.9 700.6 108.9 490C108.9 378.9 156.4 279 232.2 209.3C232.2 209.3 238.3 203.4 240 202.1C245.4 198 252.4 195.3 260 195.3C278.1 195.3 292.7 209.9 292.7 228C292.7 230.4 289.9 243.9 289.9 243.9C285.5 267.2 283.1 291.2 283.1 315.8C283.1 526.4 453.6 696.9 664.2 696.9C687.9 696.9 711 694.7 733.5 690.6L744 688.2C746.4 687.8 748.8 687.4 751.4 687.4C769.5 687.4 784.1 702 784.1 720.1C784 728.1 781.2 735.2 776.4 740.9Z" fill="white"/>
<path d="M490 0C219.3 0 0 219.3 0 490C0 760.7 219.3 980 490 980C760.7 980 980 760.7 980 490C980 219.3 760.7 0 490 0ZM776.4 740.9C775.5 742 770.7 747.9 769 749.6C699.5 824.5 600.2 871.1 490 871.1C279.4 871.1 108.9 700.6 108.9 490C108.9 378.9 156.4 279 232.2 209.3C232.2 209.3 238.3 203.4 240 202.1C245.4 198 252.4 195.3 260 195.3C278.1 195.3 292.7 209.9 292.7 228C292.7 230.4 289.9 243.9 289.9 243.9C285.5 267.2 283.1 291.2 283.1 315.8C283.1 526.4 453.6 696.9 664.2 696.9C687.9 696.9 711 694.7 733.5 690.6L744 688.2C746.4 687.8 748.8 687.4 751.4 687.4C769.5 687.4 784.1 702 784.1 720.1C784 728.1 781.2 735.2 776.4 740.9Z" fill="black"/>
</svg>
